<svg width="526" height="526" viewBox="0 0 526 526" fill="none" xmlns="http://www.w3.org/2000/svg">
<path d="M259.9 0.00429962C238.447 0.103952 217.961 1.93365 199.935 5.12355C146.833 14.5053 137.191 34.1409 137.191 70.3537V118.18H262.678V134.121H137.191H90.0967C53.6271 134.121 21.6921 156.041 11.7042 197.742C0.182577 245.54 -0.328013 275.368 11.7042 325.278C20.6247 362.428 41.9266 388.898 78.3963 388.898H121.542V331.565C121.542 290.146 157.378 253.611 199.935 253.611H325.276C360.167 253.611 388.019 224.884 388.019 189.844V70.3537C388.019 36.3466 359.33 10.7996 325.276 5.12355C303.72 1.53504 281.352 -0.0953527 259.9 0.00429962ZM192.037 38.4701C204.999 38.4701 215.584 49.2284 215.584 62.4555C215.584 75.6363 204.999 86.295 192.037 86.295C179.029 86.295 168.49 75.6363 168.49 62.4555C168.49 49.2274 179.029 38.4701 192.037 38.4701Z" fill="url(#paint0_linear_26_153)"/>
<path d="M403.669 134.121V189.844C403.669 233.046 367.042 269.406 325.277 269.406H199.936C165.603 269.406 137.192 298.791 137.192 333.174V452.664C137.192 486.671 166.764 506.675 199.936 516.431C239.658 528.111 277.75 530.222 325.277 516.431C356.869 507.285 388.02 488.877 388.02 452.664V404.838H262.679V388.896H388.02H450.764C487.233 388.896 500.824 363.458 513.508 325.275C526.609 285.967 526.052 248.166 513.508 197.74C504.495 161.434 487.281 134.119 450.764 134.119H403.669V134.121ZM333.175 436.723C346.183 436.723 356.722 447.381 356.722 460.562C356.722 473.79 346.183 484.549 333.175 484.549C320.213 484.549 309.628 473.79 309.628 460.562C309.627 447.381 320.212 436.723 333.175 436.723Z" fill="url(#paint1_linear_26_153)"/>
<defs>
<linearGradient id="paint0_linear_26_153" x1="139.202" y1="39.0393" x2="263.274" y2="247.019" gradientUnits="userSpaceOnUse">
<stop stop-color="#54E578"/>
<stop offset="1" stop-color="#36B964"/>
</linearGradient>
<linearGradient id="paint1_linear_26_153" x1="381.655" y1="398.096" x2="203.428" y2="276.814" gradientUnits="userSpaceOnUse">
<stop stop-color="#47BD7F"/>
<stop offset="1" stop-color="#56E67F"/>
</linearGradient>
</defs>
</svg>
