<svg width="4584" height="575" viewBox="0 0 4584 575" fill="none" xmlns="http://www.w3.org/2000/svg">
<path d="M611.989 460V114.58H695.477V392.198H839.177V460H611.989ZM984.498 464.891C957.399 464.891 934.011 459.55 914.334 448.868C894.769 438.074 879.702 422.726 869.133 402.824C858.676 382.809 853.447 359.028 853.447 331.48C853.447 304.718 858.732 281.331 869.301 261.316C879.871 241.189 894.769 225.56 913.997 214.428C933.224 203.184 955.881 197.562 981.968 197.562C1000.41 197.562 1017.27 200.429 1032.57 206.164C1047.86 211.898 1061.07 220.387 1072.2 231.632C1083.33 242.876 1091.99 256.762 1098.18 273.291C1104.36 289.708 1107.45 308.541 1107.45 329.793V350.37H882.288V302.47H1030.71C1030.6 293.699 1028.52 285.885 1024.47 279.026C1020.42 272.167 1014.86 266.826 1007.77 263.003C1000.8 259.067 992.762 257.1 983.654 257.1C974.434 257.1 966.17 259.18 958.861 263.34C951.552 267.388 945.761 272.954 941.489 280.038C937.216 287.009 934.967 294.936 934.742 303.819V352.562C934.742 363.132 936.822 372.408 940.983 380.392C945.143 388.262 951.046 394.39 958.692 398.776C966.338 403.161 975.446 405.353 986.015 405.353C993.324 405.353 999.958 404.342 1005.92 402.318C1011.88 400.294 1016.99 397.314 1021.27 393.378C1025.54 389.443 1028.74 384.608 1030.88 378.874L1106.61 381.066C1103.46 398.045 1096.55 412.831 1085.86 425.424C1075.29 437.905 1061.41 447.631 1044.2 454.603C1027 461.462 1007.1 464.891 984.498 464.891ZM1203.61 464.385C1187.08 464.385 1172.41 461.63 1159.59 456.121C1146.88 450.499 1136.82 442.066 1129.4 430.821C1122.09 419.465 1118.43 405.241 1118.43 388.15C1118.43 373.757 1120.96 361.614 1126.02 351.719C1131.08 341.824 1138.05 333.785 1146.94 327.6C1155.82 321.416 1166.05 316.75 1177.63 313.601C1189.22 310.341 1201.58 308.148 1214.74 307.024C1229.47 305.674 1241.33 304.269 1250.33 302.807C1259.32 301.233 1265.84 299.04 1269.89 296.229C1274.05 293.306 1276.13 289.202 1276.13 283.917V283.074C1276.13 274.416 1273.15 267.725 1267.19 263.003C1261.23 258.28 1253.19 255.919 1243.08 255.919C1232.17 255.919 1223.4 258.28 1216.76 263.003C1210.13 267.725 1205.91 274.247 1204.11 282.568L1128.05 279.869C1130.3 264.127 1136.09 250.072 1145.42 237.703C1154.86 225.222 1167.8 215.44 1184.21 208.356C1200.74 201.16 1220.59 197.562 1243.75 197.562C1260.28 197.562 1275.51 199.53 1289.46 203.465C1303.4 207.288 1315.54 212.91 1325.89 220.331C1336.23 227.64 1344.22 236.635 1349.84 247.317C1355.57 257.999 1358.44 270.199 1358.44 283.917V460H1280.86V423.906H1278.83C1274.22 432.677 1268.32 440.098 1261.12 446.17C1254.04 452.242 1245.66 456.795 1235.99 459.831C1226.43 462.867 1215.64 464.385 1203.61 464.385ZM1229.08 410.413C1237.96 410.413 1245.94 408.614 1253.03 405.016C1260.22 401.418 1265.96 396.471 1270.23 390.174C1274.5 383.765 1276.64 376.344 1276.64 367.911V343.286C1274.28 344.523 1271.41 345.647 1268.04 346.659C1264.78 347.671 1261.18 348.627 1257.24 349.526C1253.31 350.426 1249.26 351.213 1245.1 351.888C1240.94 352.562 1236.95 353.181 1233.12 353.743C1225.37 354.98 1218.73 356.891 1213.22 359.477C1207.82 362.064 1203.66 365.437 1200.74 369.597C1197.93 373.645 1196.52 378.48 1196.52 384.102C1196.52 392.648 1199.56 399.169 1205.63 403.667C1211.82 408.165 1219.63 410.413 1229.08 410.413ZM1389.87 460V200.935H1469.99V248.16H1472.68C1477.41 231.069 1485.11 218.363 1495.79 210.043C1506.47 201.61 1518.9 197.393 1533.07 197.393C1536.89 197.393 1540.82 197.674 1544.87 198.236C1548.92 198.686 1552.69 199.417 1556.17 200.429V272.11C1552.24 270.761 1547.06 269.693 1540.66 268.906C1534.36 268.119 1528.74 267.725 1523.79 267.725C1514.01 267.725 1505.18 269.918 1497.31 274.303C1489.55 278.576 1483.42 284.591 1478.93 292.35C1474.54 299.996 1472.35 308.991 1472.35 319.336V460H1389.87ZM1653.26 312.252V460H1570.78V200.935H1649.21V248.498H1652.08C1657.81 232.644 1667.59 220.219 1681.42 211.223C1695.25 202.116 1711.73 197.562 1730.84 197.562C1749.06 197.562 1764.85 201.666 1778.23 209.874C1791.73 217.97 1802.18 229.327 1809.61 243.944C1817.14 258.449 1820.85 275.427 1820.74 294.88V460H1738.26V311.071C1738.37 296.679 1734.72 285.435 1727.3 277.339C1719.99 269.243 1709.81 265.195 1696.77 265.195C1688.11 265.195 1680.47 267.107 1673.83 270.93C1667.31 274.64 1662.25 279.981 1658.65 286.953C1655.17 293.924 1653.37 302.357 1653.26 312.252Z" fill="white"/>
<path d="M1951.53 460V114.58H2068.24C2095.34 114.58 2117.49 119.471 2134.7 129.254C2152.01 138.924 2164.83 152.023 2173.15 168.552C2181.47 185.081 2185.63 203.521 2185.63 223.873C2185.63 244.225 2181.47 262.722 2173.15 279.363C2164.94 296.004 2152.24 309.272 2135.03 319.167C2117.83 328.95 2095.79 333.841 2068.92 333.841H1985.26V296.735H2067.57C2086.12 296.735 2101.02 293.531 2112.26 287.121C2123.51 280.712 2131.66 272.054 2136.72 261.147C2141.89 250.128 2144.48 237.703 2144.48 223.873C2144.48 210.043 2141.89 197.674 2136.72 186.767C2131.66 175.861 2123.45 167.315 2112.1 161.131C2100.74 154.834 2085.67 151.686 2066.89 151.686H1993.36V460H1951.53ZM2254.25 557.149C2247.51 557.149 2241.49 556.587 2236.21 555.463C2230.92 554.451 2227.27 553.439 2225.24 552.427L2235.36 517.345C2245.03 519.819 2253.58 520.718 2261 520.044C2268.42 519.369 2275 516.052 2280.73 510.093C2286.58 504.246 2291.92 494.744 2296.76 481.589L2304.18 461.349L2208.38 200.935H2251.56L2323.07 407.377H2325.77L2397.28 200.935H2440.46L2330.49 497.78C2325.54 511.161 2319.41 522.236 2312.11 531.007C2304.8 539.89 2296.31 546.467 2286.64 550.74C2277.08 555.013 2266.29 557.149 2254.25 557.149ZM2586.66 200.935V234.667H2452.41V200.935H2586.66ZM2491.54 138.867H2531.34V385.789C2531.34 397.033 2532.97 405.466 2536.23 411.088C2539.61 416.598 2543.88 420.308 2549.05 422.22C2554.34 424.019 2559.9 424.918 2565.75 424.918C2570.14 424.918 2573.73 424.693 2576.54 424.244C2579.36 423.681 2581.6 423.232 2583.29 422.894L2591.39 458.651C2588.69 459.663 2584.92 460.675 2580.09 461.687C2575.25 462.811 2569.12 463.373 2561.7 463.373C2550.46 463.373 2539.44 460.956 2528.64 456.121C2517.96 451.286 2509.08 443.921 2502 434.026C2495.02 424.131 2491.54 411.65 2491.54 396.583V138.867ZM2672.91 304.156V460H2633.11V114.58H2672.91V241.414H2676.28C2682.36 228.033 2691.46 217.408 2703.61 209.537C2715.86 201.554 2732.17 197.562 2752.52 197.562C2770.17 197.562 2785.63 201.104 2798.9 208.188C2812.17 215.159 2822.46 225.897 2829.77 240.402C2837.19 254.794 2840.9 273.122 2840.9 295.386V460H2801.09V298.084C2801.09 277.508 2795.75 261.597 2785.07 250.353C2774.5 238.996 2759.83 233.318 2741.05 233.318C2728.01 233.318 2716.31 236.073 2705.97 241.583C2695.74 247.092 2687.64 255.132 2681.68 265.701C2675.83 276.271 2672.91 289.089 2672.91 304.156ZM2999.97 465.397C2976.58 465.397 2956.06 459.831 2938.4 448.7C2920.86 437.568 2907.14 421.995 2897.25 401.98C2887.47 381.966 2882.58 358.578 2882.58 331.817C2882.58 304.831 2887.47 281.274 2897.25 261.147C2907.14 241.02 2920.86 225.391 2938.4 214.259C2956.06 203.128 2976.58 197.562 2999.97 197.562C3023.35 197.562 3043.82 203.128 3061.36 214.259C3079.01 225.391 3092.73 241.02 3102.51 261.147C3112.41 281.274 3117.35 304.831 3117.35 331.817C3117.35 358.578 3112.41 381.966 3102.51 401.98C3092.73 421.995 3079.01 437.568 3061.36 448.7C3043.82 459.831 3023.35 465.397 2999.97 465.397ZM2999.97 429.641C3017.73 429.641 3032.35 425.087 3043.82 415.979C3055.29 406.871 3063.78 394.896 3069.29 380.054C3074.79 365.212 3077.55 349.133 3077.55 331.817C3077.55 314.501 3074.79 298.366 3069.29 283.411C3063.78 268.456 3055.29 256.369 3043.82 247.148C3032.35 237.928 3017.73 233.318 2999.97 233.318C2982.2 233.318 2967.58 237.928 2956.11 247.148C2944.64 256.369 2936.15 268.456 2930.65 283.411C2925.14 298.366 2922.38 314.501 2922.38 331.817C2922.38 349.133 2925.14 365.212 2930.65 380.054C2936.15 394.896 2944.64 406.871 2956.11 415.979C2967.58 425.087 2982.2 429.641 2999.97 429.641ZM3198.92 304.156V460H3159.12V200.935H3197.57V241.414H3200.94C3207.02 228.258 3216.24 217.689 3228.61 209.706C3240.97 201.61 3256.94 197.562 3276.51 197.562C3294.05 197.562 3309.39 201.16 3322.55 208.356C3335.71 215.44 3345.94 226.234 3353.25 240.739C3360.56 255.132 3364.21 273.347 3364.21 295.386V460H3324.41V298.084C3324.41 277.733 3319.12 261.878 3308.55 250.522C3297.98 239.053 3283.48 233.318 3265.04 233.318C3252.33 233.318 3240.97 236.073 3230.97 241.583C3221.07 247.092 3213.26 255.132 3207.52 265.701C3201.79 276.271 3198.92 289.089 3198.92 304.156ZM3647.89 200.935V234.667H3508.24V200.935H3647.89ZM3550.07 460V165.179C3550.07 150.336 3553.56 137.968 3560.53 128.073C3567.5 118.178 3576.55 110.757 3587.68 105.81C3598.81 100.862 3610.56 98.3885 3622.93 98.3885C3632.71 98.3885 3640.7 99.1756 3646.88 100.75C3653.07 102.324 3657.68 103.786 3660.71 105.135L3649.24 139.542C3647.22 138.867 3644.41 138.024 3640.81 137.012C3637.32 136 3632.71 135.494 3626.98 135.494C3613.82 135.494 3604.32 138.811 3598.48 145.445C3592.74 152.079 3589.87 161.805 3589.87 174.624V460H3550.07ZM3779.26 465.397C3755.87 465.397 3735.35 459.831 3717.7 448.7C3700.16 437.568 3686.44 421.995 3676.54 401.98C3666.76 381.966 3661.87 358.578 3661.87 331.817C3661.87 304.831 3666.76 281.274 3676.54 261.147C3686.44 241.02 3700.16 225.391 3717.7 214.259C3735.35 203.128 3755.87 197.562 3779.26 197.562C3802.65 197.562 3823.11 203.128 3840.65 214.259C3858.3 225.391 3872.02 241.02 3881.8 261.147C3891.7 281.274 3896.65 304.831 3896.65 331.817C3896.65 358.578 3891.7 381.966 3881.8 401.98C3872.02 421.995 3858.3 437.568 3840.65 448.7C3823.11 459.831 3802.65 465.397 3779.26 465.397ZM3779.26 429.641C3797.02 429.641 3811.64 425.087 3823.11 415.979C3834.58 406.871 3843.07 394.896 3848.58 380.054C3854.09 365.212 3856.84 349.133 3856.84 331.817C3856.84 314.501 3854.09 298.366 3848.58 283.411C3843.07 268.456 3834.58 256.369 3823.11 247.148C3811.64 237.928 3797.02 233.318 3779.26 233.318C3761.49 233.318 3746.87 237.928 3735.41 247.148C3723.94 256.369 3715.45 268.456 3709.94 283.411C3704.43 298.366 3701.67 314.501 3701.67 331.817C3701.67 349.133 3704.43 365.212 3709.94 380.054C3715.45 394.896 3723.94 406.871 3735.41 415.979C3746.87 425.087 3761.49 429.641 3779.26 429.641ZM3938.41 460V200.935H3976.86V240.065H3979.56C3984.29 227.246 3992.83 216.846 4005.2 208.862C4017.57 200.879 4031.51 196.887 4047.03 196.887C4049.95 196.887 4053.61 196.943 4057.99 197.056C4062.38 197.168 4065.69 197.337 4067.94 197.562V238.041C4066.59 237.703 4063.5 237.197 4058.67 236.523C4053.94 235.736 4048.94 235.342 4043.65 235.342C4031.06 235.342 4019.82 237.985 4009.92 243.269C4000.14 248.442 3992.38 255.638 3986.65 264.858C3981.02 273.966 3978.21 284.367 3978.21 296.06V460H3938.41ZM4230.27 460H4186.42L4313.26 114.58H4356.43L4483.27 460H4439.41L4336.19 169.227H4333.5L4230.27 460ZM4246.47 325.07H4423.22V362.176H4246.47V325.07ZM4559.9 114.58V460H4518.07V114.58H4559.9Z" fill="#9F9FA8"/>
<path d="M104.78 471.68V419.68H125.22L460.05 419.6V503.73C460.054 510.593 458.705 517.389 456.082 523.731C453.458 530.072 449.611 535.835 444.76 540.689C439.908 545.543 434.148 549.394 427.808 552.021C421.468 554.648 414.673 556 407.81 556H157.04C150.178 556.001 143.384 554.651 137.044 552.027C130.704 549.402 124.943 545.554 120.091 540.703C115.238 535.853 111.388 530.093 108.761 523.755C106.134 517.416 104.781 510.622 104.78 503.76V471.68Z" fill="#E7E7E9"/>
<path d="M366.01 104.82V46.37C369.284 47.6979 372.307 49.5748 374.95 51.92L449.56 118.24C454.809 122.922 458.331 129.234 459.56 136.16H397.35C389.039 136.157 381.069 132.855 375.192 126.978C369.315 121.101 366.012 113.131 366.01 104.82Z" fill="#A3A2A3"/>
<path d="M354.09 44C358.184 43.9976 362.238 44.803 366.02 46.37V104.82C366.022 113.129 369.324 121.098 375.198 126.974C381.073 132.851 389.04 136.155 397.35 136.16H459.56C459.889 137.975 460.053 139.816 460.05 141.66V233.45L104.78 233.52V106.69C104.782 90.0627 111.389 74.1172 123.148 62.3609C134.906 50.6045 150.852 44 167.48 44H354.09Z" fill="#E7E7E9"/>
<path d="M212.05 285.86C225.1 285.86 236.15 296.44 236.15 309.49C236.15 322.54 225.15 333.12 212.05 333.12C205.58 333.12 188.9 333.23 188.9 333.23C188.9 333.23 188.8 316.07 188.8 309.49C188.8 304.09 188.73 285.86 188.73 285.86H212.05Z" fill="#70D185"/>
<path d="M188.8 309.49C188.8 316.07 188.9 333.23 188.9 333.23C188.9 333.23 205.58 333.12 212.05 333.12C225.1 333.12 236.15 322.54 236.15 309.49C236.15 296.44 225.15 285.86 212.05 285.86H188.73C188.73 285.86 188.8 304.09 188.8 309.49ZM460.05 410V419.62L125.22 419.7H77.9498C71.5216 419.7 65.3212 422.081 60.5455 426.384C55.7698 430.687 52.7574 436.606 52.0898 443L52.5198 259.51C52.5198 252.614 55.2591 246.001 60.1351 241.125C65.011 236.249 71.6242 233.51 78.5198 233.51H104.78L460.05 233.44V410Z" fill="#70D185"/>
<path d="M104.78 421.94V471.68H77.95C74.5255 471.68 71.1347 471.004 67.9724 469.689C64.8101 468.375 61.9385 466.449 59.5227 464.022C57.1068 461.595 55.1941 458.715 53.8946 455.547C52.595 452.378 51.9342 448.984 51.95 445.56C51.9502 444.705 51.9969 443.85 52.09 443C52.7598 436.608 55.7732 430.691 60.5487 426.39C65.3241 422.089 71.5233 419.71 77.95 419.71H104.78V421.94Z" fill="#4CA054"/>
<path d="M188.73 380C185.971 379.997 183.326 378.899 181.376 376.947C179.426 374.996 178.33 372.349 178.33 369.59V285.86C178.287 284.467 178.524 283.078 179.028 281.778C179.531 280.478 180.291 279.292 181.261 278.291C182.231 277.29 183.393 276.495 184.677 275.951C185.961 275.407 187.341 275.127 188.735 275.127C190.129 275.127 191.509 275.407 192.793 275.951C194.077 276.495 195.239 277.29 196.209 278.291C197.18 279.292 197.939 280.478 198.443 281.778C198.946 283.078 199.183 284.467 199.14 285.86V369.6C199.138 372.359 198.04 375.004 196.088 376.955C194.136 378.905 191.489 380 188.73 380Z" fill="white"/>
<path d="M188.95 343.63C186.201 343.63 183.564 342.543 181.614 340.606C179.663 338.669 178.558 336.039 178.54 333.29C178.54 333.12 178.44 316.02 178.44 309.49C178.44 304.1 178.38 285.89 178.38 285.89C178.375 284.521 178.64 283.164 179.16 281.898C179.68 280.631 180.446 279.48 181.412 278.51C182.378 277.54 183.526 276.771 184.791 276.245C186.055 275.72 187.411 275.45 188.78 275.45H212.05C231.05 275.45 246.55 290.72 246.55 309.45C246.55 328.18 231.08 343.45 212.05 343.45C205.69 343.45 189.13 343.55 188.96 343.55L188.95 343.63ZM199.22 296.26V309.49C199.22 312.49 199.22 317.9 199.27 322.76H212.07C219.49 322.76 225.76 316.7 225.76 309.53C225.76 302.36 219.49 296.3 212.07 296.3L199.22 296.26Z" fill="white"/>
<path d="M296.6 337.23C294.87 337.232 293.166 336.802 291.644 335.979C290.121 335.157 288.828 333.968 287.88 332.52L261.13 291.52C259.621 289.21 259.092 286.395 259.658 283.695C260.224 280.994 261.84 278.629 264.15 277.12C266.46 275.611 269.275 275.081 271.976 275.648C274.676 276.214 277.041 277.83 278.55 280.14L296.55 307.74L314.37 280.37C315.116 279.225 316.079 278.238 317.206 277.465C318.333 276.692 319.601 276.149 320.937 275.866C322.274 275.584 323.653 275.567 324.996 275.817C326.34 276.068 327.62 276.58 328.765 277.325C329.911 278.07 330.898 279.034 331.67 280.161C332.443 281.287 332.986 282.555 333.269 283.892C333.552 285.229 333.569 286.608 333.318 287.951C333.068 289.294 332.556 290.575 331.81 291.72L305.29 332.48C304.343 333.929 303.05 335.12 301.528 335.944C300.005 336.768 298.302 337.2 296.57 337.2L296.6 337.23Z" fill="white"/>
<path d="M296.49 380C295.123 379.996 293.77 379.723 292.509 379.196C291.247 378.669 290.102 377.899 289.138 376.93C288.174 375.96 287.411 374.811 286.891 373.546C286.372 372.282 286.106 370.927 286.11 369.56L286.21 326.79C286.216 324.034 287.315 321.392 289.267 319.446C291.219 317.499 293.864 316.408 296.62 316.41C299.38 316.418 302.023 317.521 303.969 319.477C305.915 321.433 307.006 324.081 307 326.84L306.9 369.61C306.895 372.368 305.796 375.01 303.844 376.958C301.893 378.906 299.248 380 296.49 380Z" fill="white"/>
</svg>
