<svg width="2351" height="460" viewBox="0 0 2351 460" fill="none" xmlns="http://www.w3.org/2000/svg">
<path d="M577.277 346V127.152H663.752C665.88 127.152 668.413 127.254 671.351 127.456C674.289 127.558 677.126 127.862 679.862 128.368C691.716 130.192 701.645 134.245 709.649 140.526C717.755 146.808 723.834 154.762 727.887 164.387C731.939 173.911 733.966 184.499 733.966 196.15C733.966 207.701 731.889 218.288 727.735 227.914C723.682 237.437 717.603 245.391 709.497 251.774C701.493 258.056 691.615 262.108 679.862 263.932C677.126 264.337 674.289 264.641 671.351 264.844C668.413 265.047 665.88 265.148 663.752 265.148H604.329V346H577.277ZM604.329 239.464H662.84C664.765 239.464 666.944 239.362 669.375 239.16C671.908 238.957 674.289 238.603 676.518 238.096C683.509 236.475 689.183 233.537 693.54 229.281C697.998 224.925 701.24 219.859 703.266 214.084C705.293 208.207 706.306 202.229 706.306 196.15C706.306 190.071 705.293 184.144 703.266 178.369C701.24 172.492 697.998 167.376 693.54 163.019C689.183 158.662 683.509 155.724 676.518 154.204C674.289 153.597 671.908 153.242 669.375 153.141C666.944 152.938 664.765 152.837 662.84 152.837H604.329V239.464ZM784.037 418.949L815.801 332.626L816.257 358.158L744.523 181.864H772.943L829.175 323.659H819.448L872.184 181.864H899.692L810.33 418.949H784.037ZM1025.57 346C1015.84 347.925 1006.22 348.685 996.692 348.28C987.269 347.976 978.86 346.101 971.464 342.656C964.067 339.11 958.444 333.639 954.594 326.243C951.352 319.759 949.579 313.224 949.275 306.638C949.072 299.951 948.971 292.403 948.971 283.993V136.271H976.023V282.777C976.023 289.464 976.074 295.189 976.175 299.951C976.378 304.713 977.441 308.816 979.366 312.261C983.014 318.745 988.789 322.545 996.692 323.659C1004.7 324.774 1014.32 324.47 1025.57 322.747V346ZM915.688 204.205V181.864H1025.57V204.205H915.688ZM1172.72 346V263.78C1172.72 255.979 1172.01 248.481 1170.59 241.288C1169.28 234.094 1166.9 227.66 1163.45 221.986C1160.11 216.211 1155.55 211.652 1149.77 208.308C1144.1 204.965 1136.91 203.293 1128.19 203.293C1121.4 203.293 1115.22 204.458 1109.65 206.789C1104.18 209.018 1099.47 212.462 1095.52 217.123C1091.57 221.784 1088.48 227.66 1086.25 234.752C1084.12 241.743 1083.06 250.001 1083.06 259.525L1065.27 254.054C1065.27 238.147 1068.11 224.519 1073.78 213.172C1079.56 201.723 1087.61 192.959 1097.95 186.88C1108.39 180.699 1120.64 177.609 1134.73 177.609C1145.37 177.609 1154.43 179.281 1161.93 182.624C1169.43 185.968 1175.66 190.426 1180.62 195.998C1185.59 201.469 1189.49 207.65 1192.33 214.539C1195.16 221.328 1197.14 228.268 1198.25 235.36C1199.47 242.351 1200.08 248.988 1200.08 255.269V346H1172.72ZM1055.7 346V127.152H1080.02V247.975H1083.06V346H1055.7ZM1306.46 350.559C1290.15 350.559 1276.06 346.861 1264.21 339.465C1252.46 332.069 1243.39 321.836 1237.01 308.766C1230.62 295.695 1227.43 280.7 1227.43 263.78C1227.43 246.556 1230.67 231.46 1237.16 218.491C1243.64 205.522 1252.81 195.441 1264.67 188.247C1276.52 180.952 1290.45 177.305 1306.46 177.305C1322.87 177.305 1337.01 181.003 1348.86 188.399C1360.72 195.694 1369.78 205.877 1376.07 218.947C1382.45 231.916 1385.64 246.86 1385.64 263.78C1385.64 280.903 1382.45 295.999 1376.07 309.069C1369.68 322.038 1360.56 332.221 1348.71 339.617C1336.86 346.912 1322.77 350.559 1306.46 350.559ZM1306.46 324.875C1323.48 324.875 1336.15 319.201 1344.45 307.854C1352.76 296.506 1356.92 281.815 1356.92 263.78C1356.92 245.239 1352.71 230.497 1344.3 219.555C1335.89 208.511 1323.28 202.989 1306.46 202.989C1295.01 202.989 1285.59 205.573 1278.19 210.74C1270.8 215.907 1265.27 223.05 1261.63 232.169C1257.98 241.288 1256.16 251.825 1256.16 263.78C1256.16 282.22 1260.41 297.013 1268.92 308.158C1277.43 319.303 1289.95 324.875 1306.46 324.875ZM1532.93 346V263.78C1532.93 255.979 1532.22 248.481 1530.8 241.288C1529.49 234.094 1527.11 227.66 1523.66 221.986C1520.32 216.211 1515.76 211.652 1509.98 208.308C1504.31 204.965 1497.12 203.293 1488.4 203.293C1481.61 203.293 1475.43 204.458 1469.86 206.789C1464.39 209.018 1459.68 212.462 1455.73 217.123C1451.78 221.784 1448.69 227.66 1446.46 234.752C1444.33 241.743 1443.27 250.001 1443.27 259.525L1425.48 254.054C1425.48 238.147 1428.32 224.519 1434 213.172C1439.77 201.723 1447.83 192.959 1458.16 186.88C1468.6 180.699 1480.85 177.609 1494.94 177.609C1505.58 177.609 1514.64 179.281 1522.14 182.624C1529.64 185.968 1535.87 190.426 1540.84 195.998C1545.8 201.469 1549.7 207.65 1552.54 214.539C1555.37 221.328 1557.35 228.268 1558.46 235.36C1559.68 242.351 1560.29 248.988 1560.29 255.269V346H1532.93ZM1415.91 346V181.864H1440.23V225.786H1443.27V346H1415.91ZM1670.23 346V172.898C1670.23 168.642 1670.43 164.336 1670.83 159.98C1671.24 155.522 1672.15 151.216 1673.57 147.061C1674.99 142.806 1677.32 138.905 1680.56 135.359C1684.31 131.205 1688.41 128.267 1692.87 126.545C1697.33 124.721 1701.84 123.606 1706.4 123.201C1711.06 122.796 1715.46 122.593 1719.62 122.593H1740.44V145.086H1721.14C1713.13 145.086 1707.16 147.061 1703.2 151.013C1699.25 154.863 1697.28 160.739 1697.28 168.642V346H1670.23ZM1642.41 204.205V181.864H1740.44V204.205H1642.41ZM1825.63 350.559C1809.32 350.559 1795.23 346.861 1783.38 339.465C1771.63 332.069 1762.56 321.836 1756.18 308.766C1749.79 295.695 1746.6 280.7 1746.6 263.78C1746.6 246.556 1749.84 231.46 1756.33 218.491C1762.81 205.522 1771.98 195.441 1783.84 188.247C1795.69 180.952 1809.62 177.305 1825.63 177.305C1842.04 177.305 1856.18 181.003 1868.03 188.399C1879.89 195.694 1888.95 205.877 1895.23 218.947C1901.62 231.916 1904.81 246.86 1904.81 263.78C1904.81 280.903 1901.62 295.999 1895.23 309.069C1888.85 322.038 1879.73 332.221 1867.88 339.617C1856.02 346.912 1841.94 350.559 1825.63 350.559ZM1825.63 324.875C1842.65 324.875 1855.32 319.201 1863.62 307.854C1871.93 296.506 1876.09 281.815 1876.09 263.78C1876.09 245.239 1871.88 230.497 1863.47 219.555C1855.06 208.511 1842.45 202.989 1825.63 202.989C1814.18 202.989 1804.76 205.573 1797.36 210.74C1789.97 215.907 1784.44 223.05 1780.8 232.169C1777.15 241.288 1775.32 251.825 1775.32 263.78C1775.32 282.22 1779.58 297.013 1788.09 308.158C1796.6 319.303 1809.11 324.875 1825.63 324.875ZM1935.23 346V181.864H1959.4V221.53L1955.44 216.363C1957.37 211.297 1959.85 206.637 1962.89 202.381C1966.03 198.126 1969.53 194.63 1973.38 191.895C1977.63 188.45 1982.45 185.816 1987.82 183.992C1993.19 182.168 1998.66 181.104 2004.23 180.8C2009.8 180.395 2015.02 180.75 2019.88 181.864V207.245C2014.21 205.725 2007.98 205.32 2001.19 206.029C1994.4 206.738 1988.12 209.22 1982.34 213.476C1977.08 217.224 1972.97 221.784 1970.03 227.154C1967.2 232.523 1965.22 238.349 1964.11 244.631C1962.99 250.811 1962.44 257.144 1962.44 263.628V346H1935.23ZM2088.19 346L2161.45 127.152H2199.14L2272.39 346H2244.27L2175.73 142.958H2184.24L2116.31 346H2088.19ZM2123.45 294.784V269.403H2237.13V294.784H2123.45ZM2299.6 346V127.152H2326.65V346H2299.6Z" fill="black"/>

<defs>
<clipPath id="clip0_152_16">
<rect width="460" height="460" rx="230" fill="white"/>
</clipPath>
</defs>
</svg>
