<svg width="4662" height="575" viewBox="0 0 4662 575" fill="none" xmlns="http://www.w3.org/2000/svg">
<path d="M689.989 460V114.58H773.477V392.198H917.177V460H689.989ZM1062.5 464.891C1035.4 464.891 1012.01 459.55 992.334 448.868C972.769 438.074 957.702 422.726 947.133 402.824C936.676 382.809 931.447 359.028 931.447 331.48C931.447 304.718 936.732 281.331 947.301 261.316C957.871 241.189 972.769 225.56 991.997 214.428C1011.22 203.184 1033.88 197.562 1059.97 197.562C1078.41 197.562 1095.27 200.429 1110.57 206.164C1125.86 211.898 1139.07 220.387 1150.2 231.632C1161.33 242.876 1169.99 256.762 1176.18 273.291C1182.36 289.708 1185.45 308.541 1185.45 329.793V350.37H960.288V302.47H1108.71C1108.6 293.699 1106.52 285.885 1102.47 279.026C1098.42 272.167 1092.86 266.826 1085.77 263.003C1078.8 259.067 1070.76 257.1 1061.65 257.1C1052.43 257.1 1044.17 259.18 1036.86 263.34C1029.55 267.388 1023.76 272.954 1019.49 280.038C1015.22 287.009 1012.97 294.936 1012.74 303.819V352.562C1012.74 363.132 1014.82 372.408 1018.98 380.392C1023.14 388.262 1029.05 394.39 1036.69 398.776C1044.34 403.161 1053.45 405.353 1064.02 405.353C1071.32 405.353 1077.96 404.342 1083.92 402.318C1089.88 400.294 1094.99 397.314 1099.27 393.378C1103.54 389.443 1106.74 384.608 1108.88 378.874L1184.61 381.066C1181.46 398.045 1174.55 412.831 1163.86 425.424C1153.29 437.905 1139.41 447.631 1122.2 454.603C1105 461.462 1085.1 464.891 1062.5 464.891ZM1281.61 464.385C1265.08 464.385 1250.41 461.63 1237.59 456.121C1224.88 450.499 1214.82 442.066 1207.4 430.821C1200.09 419.465 1196.43 405.241 1196.43 388.15C1196.43 373.757 1198.96 361.614 1204.02 351.719C1209.08 341.824 1216.05 333.785 1224.94 327.6C1233.82 321.416 1244.05 316.75 1255.63 313.601C1267.22 310.341 1279.58 308.148 1292.74 307.024C1307.47 305.674 1319.33 304.269 1328.33 302.807C1337.32 301.233 1343.84 299.04 1347.89 296.229C1352.05 293.306 1354.13 289.202 1354.13 283.917V283.074C1354.13 274.416 1351.15 267.725 1345.19 263.003C1339.23 258.28 1331.19 255.919 1321.08 255.919C1310.17 255.919 1301.4 258.28 1294.76 263.003C1288.13 267.725 1283.91 274.247 1282.11 282.568L1206.05 279.869C1208.3 264.127 1214.09 250.072 1223.42 237.703C1232.86 225.222 1245.8 215.44 1262.21 208.356C1278.74 201.16 1298.59 197.562 1321.75 197.562C1338.28 197.562 1353.51 199.53 1367.46 203.465C1381.4 207.288 1393.54 212.91 1403.89 220.331C1414.23 227.64 1422.22 236.635 1427.84 247.317C1433.57 257.999 1436.44 270.199 1436.44 283.917V460H1358.86V423.906H1356.83C1352.22 432.677 1346.32 440.098 1339.12 446.17C1332.04 452.242 1323.66 456.795 1313.99 459.831C1304.43 462.867 1293.64 464.385 1281.61 464.385ZM1307.08 410.413C1315.96 410.413 1323.94 408.614 1331.03 405.016C1338.22 401.418 1343.96 396.471 1348.23 390.174C1352.5 383.765 1354.64 376.344 1354.64 367.911V343.286C1352.28 344.523 1349.41 345.647 1346.04 346.659C1342.78 347.671 1339.18 348.627 1335.24 349.526C1331.31 350.426 1327.26 351.213 1323.1 351.888C1318.94 352.562 1314.95 353.181 1311.12 353.743C1303.37 354.98 1296.73 356.891 1291.22 359.477C1285.82 362.064 1281.66 365.437 1278.74 369.597C1275.93 373.645 1274.52 378.48 1274.52 384.102C1274.52 392.648 1277.56 399.169 1283.63 403.667C1289.82 408.165 1297.63 410.413 1307.08 410.413ZM1467.87 460V200.935H1547.99V248.16H1550.68C1555.41 231.069 1563.11 218.363 1573.79 210.043C1584.47 201.61 1596.9 197.393 1611.07 197.393C1614.89 197.393 1618.82 197.674 1622.87 198.236C1626.92 198.686 1630.69 199.417 1634.17 200.429V272.11C1630.24 270.761 1625.06 269.693 1618.66 268.906C1612.36 268.119 1606.74 267.725 1601.79 267.725C1592.01 267.725 1583.18 269.918 1575.31 274.303C1567.55 278.576 1561.42 284.591 1556.93 292.35C1552.54 299.996 1550.35 308.991 1550.35 319.336V460H1467.87ZM1731.26 312.252V460H1648.78V200.935H1727.21V248.498H1730.08C1735.81 232.644 1745.59 220.219 1759.42 211.223C1773.25 202.116 1789.73 197.562 1808.84 197.562C1827.06 197.562 1842.85 201.666 1856.23 209.874C1869.73 217.97 1880.18 229.327 1887.61 243.944C1895.14 258.449 1898.85 275.427 1898.74 294.88V460H1816.26V311.071C1816.37 296.679 1812.72 285.435 1805.3 277.339C1797.99 269.243 1787.81 265.195 1774.77 265.195C1766.11 265.195 1758.47 267.107 1751.83 270.93C1745.31 274.64 1740.25 279.981 1736.65 286.953C1733.17 293.924 1731.37 302.357 1731.26 312.252Z" fill="#09090B"/>
<path d="M2029.53 460V114.58H2146.24C2173.34 114.58 2195.49 119.471 2212.7 129.254C2230.01 138.924 2242.83 152.023 2251.15 168.552C2259.47 185.081 2263.63 203.521 2263.63 223.873C2263.63 244.225 2259.47 262.722 2251.15 279.363C2242.94 296.004 2230.24 309.272 2213.03 319.167C2195.83 328.95 2173.79 333.841 2146.92 333.841H2063.26V296.735H2145.57C2164.12 296.735 2179.02 293.531 2190.26 287.121C2201.51 280.712 2209.66 272.054 2214.72 261.147C2219.89 250.128 2222.48 237.703 2222.48 223.873C2222.48 210.043 2219.89 197.674 2214.72 186.767C2209.66 175.861 2201.45 167.315 2190.1 161.131C2178.74 154.834 2163.67 151.686 2144.89 151.686H2071.36V460H2029.53ZM2332.25 557.149C2325.51 557.149 2319.49 556.587 2314.21 555.463C2308.92 554.451 2305.27 553.439 2303.24 552.427L2313.36 517.345C2323.03 519.819 2331.58 520.718 2339 520.044C2346.42 519.369 2353 516.052 2358.73 510.093C2364.58 504.246 2369.92 494.744 2374.76 481.589L2382.18 461.349L2286.38 200.935H2329.56L2401.07 407.377H2403.77L2475.28 200.935H2518.46L2408.49 497.78C2403.54 511.161 2397.41 522.236 2390.11 531.007C2382.8 539.89 2374.31 546.467 2364.64 550.74C2355.08 555.013 2344.29 557.149 2332.25 557.149ZM2664.66 200.935V234.667H2530.41V200.935H2664.66ZM2569.54 138.867H2609.34V385.789C2609.34 397.033 2610.97 405.466 2614.23 411.088C2617.61 416.598 2621.88 420.308 2627.05 422.22C2632.34 424.019 2637.9 424.918 2643.75 424.918C2648.14 424.918 2651.73 424.693 2654.54 424.244C2657.36 423.681 2659.6 423.232 2661.29 422.894L2669.39 458.651C2666.69 459.663 2662.92 460.675 2658.09 461.687C2653.25 462.811 2647.12 463.373 2639.7 463.373C2628.46 463.373 2617.44 460.956 2606.64 456.121C2595.96 451.286 2587.08 443.921 2580 434.026C2573.02 424.131 2569.54 411.65 2569.54 396.583V138.867ZM2750.91 304.156V460H2711.11V114.58H2750.91V241.414H2754.28C2760.36 228.033 2769.46 217.408 2781.61 209.537C2793.86 201.554 2810.17 197.562 2830.52 197.562C2848.17 197.562 2863.63 201.104 2876.9 208.188C2890.17 215.159 2900.46 225.897 2907.77 240.402C2915.19 254.794 2918.9 273.122 2918.9 295.386V460H2879.09V298.084C2879.09 277.508 2873.75 261.597 2863.07 250.353C2852.5 238.996 2837.83 233.318 2819.05 233.318C2806.01 233.318 2794.31 236.073 2783.97 241.583C2773.74 247.092 2765.64 255.132 2759.68 265.701C2753.83 276.271 2750.91 289.089 2750.91 304.156ZM3077.97 465.397C3054.58 465.397 3034.06 459.831 3016.4 448.7C2998.86 437.568 2985.14 421.995 2975.25 401.98C2965.47 381.966 2960.58 358.578 2960.58 331.817C2960.58 304.831 2965.47 281.274 2975.25 261.147C2985.14 241.02 2998.86 225.391 3016.4 214.259C3034.06 203.128 3054.58 197.562 3077.97 197.562C3101.35 197.562 3121.82 203.128 3139.36 214.259C3157.01 225.391 3170.73 241.02 3180.51 261.147C3190.41 281.274 3195.35 304.831 3195.35 331.817C3195.35 358.578 3190.41 381.966 3180.51 401.98C3170.73 421.995 3157.01 437.568 3139.36 448.7C3121.82 459.831 3101.35 465.397 3077.97 465.397ZM3077.97 429.641C3095.73 429.641 3110.35 425.087 3121.82 415.979C3133.29 406.871 3141.78 394.896 3147.29 380.054C3152.79 365.212 3155.55 349.133 3155.55 331.817C3155.55 314.501 3152.79 298.366 3147.29 283.411C3141.78 268.456 3133.29 256.369 3121.82 247.148C3110.35 237.928 3095.73 233.318 3077.97 233.318C3060.2 233.318 3045.58 237.928 3034.11 247.148C3022.64 256.369 3014.15 268.456 3008.65 283.411C3003.14 298.366 3000.38 314.501 3000.38 331.817C3000.38 349.133 3003.14 365.212 3008.65 380.054C3014.15 394.896 3022.64 406.871 3034.11 415.979C3045.58 425.087 3060.2 429.641 3077.97 429.641ZM3276.92 304.156V460H3237.12V200.935H3275.57V241.414H3278.94C3285.02 228.258 3294.24 217.689 3306.61 209.706C3318.97 201.61 3334.94 197.562 3354.51 197.562C3372.05 197.562 3387.39 201.16 3400.55 208.356C3413.71 215.44 3423.94 226.234 3431.25 240.739C3438.56 255.132 3442.21 273.347 3442.21 295.386V460H3402.41V298.084C3402.41 277.733 3397.12 261.878 3386.55 250.522C3375.98 239.053 3361.48 233.318 3343.04 233.318C3330.33 233.318 3318.97 236.073 3308.97 241.583C3299.07 247.092 3291.26 255.132 3285.52 265.701C3279.79 276.271 3276.92 289.089 3276.92 304.156ZM3725.89 200.935V234.667H3586.24V200.935H3725.89ZM3628.07 460V165.179C3628.07 150.336 3631.56 137.968 3638.53 128.073C3645.5 118.178 3654.55 110.757 3665.68 105.81C3676.81 100.862 3688.56 98.3885 3700.93 98.3885C3710.71 98.3885 3718.7 99.1756 3724.88 100.75C3731.07 102.324 3735.68 103.786 3738.71 105.135L3727.24 139.542C3725.22 138.867 3722.41 138.024 3718.81 137.012C3715.32 136 3710.71 135.494 3704.98 135.494C3691.82 135.494 3682.32 138.811 3676.48 145.445C3670.74 152.079 3667.87 161.805 3667.87 174.624V460H3628.07ZM3857.26 465.397C3833.87 465.397 3813.35 459.831 3795.7 448.7C3778.16 437.568 3764.44 421.995 3754.54 401.98C3744.76 381.966 3739.87 358.578 3739.87 331.817C3739.87 304.831 3744.76 281.274 3754.54 261.147C3764.44 241.02 3778.16 225.391 3795.7 214.259C3813.35 203.128 3833.87 197.562 3857.26 197.562C3880.65 197.562 3901.11 203.128 3918.65 214.259C3936.3 225.391 3950.02 241.02 3959.8 261.147C3969.7 281.274 3974.65 304.831 3974.65 331.817C3974.65 358.578 3969.7 381.966 3959.8 401.98C3950.02 421.995 3936.3 437.568 3918.65 448.7C3901.11 459.831 3880.65 465.397 3857.26 465.397ZM3857.26 429.641C3875.02 429.641 3889.64 425.087 3901.11 415.979C3912.58 406.871 3921.07 394.896 3926.58 380.054C3932.09 365.212 3934.84 349.133 3934.84 331.817C3934.84 314.501 3932.09 298.366 3926.58 283.411C3921.07 268.456 3912.58 256.369 3901.11 247.148C3889.64 237.928 3875.02 233.318 3857.26 233.318C3839.49 233.318 3824.87 237.928 3813.41 247.148C3801.94 256.369 3793.45 268.456 3787.94 283.411C3782.43 298.366 3779.67 314.501 3779.67 331.817C3779.67 349.133 3782.43 365.212 3787.94 380.054C3793.45 394.896 3801.94 406.871 3813.41 415.979C3824.87 425.087 3839.49 429.641 3857.26 429.641ZM4016.41 460V200.935H4054.86V240.065H4057.56C4062.29 227.246 4070.83 216.846 4083.2 208.862C4095.57 200.879 4109.51 196.887 4125.03 196.887C4127.95 196.887 4131.61 196.943 4135.99 197.056C4140.38 197.168 4143.69 197.337 4145.94 197.562V238.041C4144.59 237.703 4141.5 237.197 4136.67 236.523C4131.94 235.736 4126.94 235.342 4121.65 235.342C4109.06 235.342 4097.82 237.985 4087.92 243.269C4078.14 248.442 4070.38 255.638 4064.65 264.858C4059.02 273.966 4056.21 284.367 4056.21 296.06V460H4016.41ZM4308.27 460H4264.42L4391.26 114.58H4434.43L4561.27 460H4517.41L4414.19 169.227H4411.5L4308.27 460ZM4324.47 325.07H4501.22V362.176H4324.47V325.07ZM4637.9 114.58V460H4596.07V114.58H4637.9Z" fill="#52525B"/>
<g clip-path="url(#clip0_26_140)">
<path d="M259.9 31.162C238.447 31.2617 217.961 33.0914 199.935 36.2813C146.833 45.663 137.191 65.2986 137.191 101.511V149.337H262.678V165.279H137.191H90.0967C53.6271 165.279 21.6921 187.199 11.7042 228.9C0.182577 276.698 -0.328013 306.526 11.7042 356.435C20.6247 393.585 41.9266 420.056 78.3963 420.056H121.542V362.723C121.542 321.303 157.378 284.769 199.935 284.769H325.276C360.167 284.769 388.019 256.041 388.019 221.002V101.511C388.019 67.5043 359.33 41.9573 325.276 36.2813C303.72 32.6928 281.352 31.0624 259.9 31.162ZM192.037 69.6278C204.999 69.6278 215.584 80.3862 215.584 93.6132C215.584 106.794 204.999 117.453 192.037 117.453C179.029 117.453 168.49 106.794 168.49 93.6132C168.49 80.3851 179.029 69.6278 192.037 69.6278Z" fill="url(#paint0_linear_26_140)"/>
<path d="M403.669 165.278V221.002C403.669 264.203 367.042 300.564 325.277 300.564H199.936C165.603 300.564 137.192 329.948 137.192 364.331V483.822C137.192 517.829 166.764 537.832 199.936 547.589C239.658 559.269 277.75 561.38 325.277 547.589C356.869 538.443 388.02 520.035 388.02 483.822V435.996H262.679V420.054H388.02H450.764C487.233 420.054 500.824 394.615 513.508 356.433C526.609 317.125 526.052 279.324 513.508 228.898C504.495 192.591 487.281 165.276 450.764 165.276H403.669V165.278ZM333.175 467.88C346.183 467.88 356.722 478.539 356.722 491.72C356.722 504.948 346.183 515.706 333.175 515.706C320.213 515.706 309.628 504.948 309.628 491.72C309.627 478.539 320.212 467.88 333.175 467.88Z" fill="url(#paint1_linear_26_140)"/>
</g>
<defs>
<linearGradient id="paint0_linear_26_140" x1="139.202" y1="70.197" x2="263.274" y2="278.177" gradientUnits="userSpaceOnUse">
<stop stop-color="#54E578"/>
<stop offset="1" stop-color="#36B964"/>
</linearGradient>
<linearGradient id="paint1_linear_26_140" x1="381.655" y1="429.254" x2="203.428" y2="307.971" gradientUnits="userSpaceOnUse">
<stop stop-color="#47BD7F"/>
<stop offset="1" stop-color="#56E67F"/>
</linearGradient>
<clipPath id="clip0_26_140">
<rect width="526" height="526" fill="white" transform="translate(0 31.1577)"/>
</clipPath>
</defs>
</svg>
